<?xml version="1.0" standalone="no"?>
<!DOCTYPE svg PUBLIC "-//W3C//DTD SVG 1.1//EN" "http://www.w3.org/Graphics/SVG/1.1/DTD/svg11.dtd">
<svg t="1509792747950" class="icon" style="" viewBox="0 0 1024 1024" version="1.1" xmlns="http://www.w3.org/2000/svg" p-id="1863" xmlns:xlink="http://www.w3.org/1999/xlink" width="32" height="32"><defs><style type="text/css"></style></defs><path d="M693.216 347.744c11.744 0 23.36 0.864 34.912 2.144C696.768 204.224 540.64 96 362.432 96 163.2 96 0 231.456 0 403.456c0 99.296 54.304 180.8 145.024 244.064l-36.256 108.736 126.688-63.36c45.344 8.96 81.696 18.144 126.944 18.144 11.36 0 22.656-0.544 33.824-1.44a268.832 268.832 0 0 1-11.168-75.744c0.032-157.952 136-286.112 308.16-286.112z m-194.88-98.016c27.296 0 45.376 17.92 45.376 45.12 0 27.104-18.08 45.248-45.376 45.248-27.168 0-54.432-18.144-54.432-45.248 0-27.232 27.264-45.12 54.432-45.12z m-253.632 90.336c-27.168 0-54.56-18.144-54.56-45.248 0-27.2 27.424-45.12 54.56-45.12 27.168 0 45.248 17.92 45.248 45.12-0.032 27.104-18.112 45.248-45.248 45.248z" p-id="1864" fill="rgba(0, 0, 0, 0.54)">
</path>

<path d="M1024 629.504c0-144.544-144.992-262.336-307.84-262.336-172.448 0-308.256 117.824-308.256 262.336 0 144.768 135.808 262.336 308.256 262.336 36.096 0 72.512-9.088 108.736-18.144L924.32 928l-27.264-90.336C969.792 783.232 1024 711.04 1024 629.504z m-407.808-45.248c-18.048 0-36.256-17.92-36.256-36.16 0-18.016 18.208-36.16 36.256-36.16 27.424 0 45.376 18.144 45.376 36.16 0 18.272-17.952 36.16-45.376 36.16z m199.36 0c-17.92 0-36-17.92-36-36.16 0-18.016 18.08-36.16 36-36.16 27.168 0 45.376 18.144 45.376 36.16 0 18.272-18.208 36.16-45.376 36.16z" p-id="1865" fill="rgba(0, 0, 0, 0.54)"></path>
</svg>
